<svg width="185" height="168" viewBox="0 0 185 168" fill="none" xmlns="http://www.w3.org/2000/svg">
<path fill-rule="evenodd" clip-rule="evenodd" d="M65.1389 8.18327C56.102 2.77468 44.3917 5.71596 38.9831 14.7528L2.70964 75.3596C0.229663 79.5032 -0.494791 84.209 0.318956 88.6115C0.476001 91.7132 1.39454 94.8203 3.14159 97.6494L40.4515 158.067C45.9851 167.028 57.7352 169.807 66.6961 164.273C73.3145 160.186 76.5602 152.708 75.5753 145.467C49.6096 138.131 30.582 114.261 30.582 85.9471C30.582 58.1043 48.9819 34.559 74.2854 26.8074C75.1452 19.5716 71.7959 12.1676 65.1389 8.18327Z" fill="white"/>
<path fill-rule="evenodd" clip-rule="evenodd" d="M184.372 84.4666C184.693 80.6979 183.898 76.7965 181.852 73.2788L147.879 14.873C142.583 5.76939 130.911 2.6822 121.807 7.9776C114.801 12.0526 111.359 19.9042 112.557 27.4554C136.828 35.8076 154.267 58.8407 154.267 85.9471C154.267 114.113 135.438 137.881 109.681 145.35C108.387 153.007 111.884 160.999 119.018 165.08C128.159 170.311 139.809 167.141 145.04 158L181.853 93.6679C183.517 90.759 184.331 87.596 184.372 84.4666Z" fill="white"/>
<rect x="125.609" width="29.0523" height="55.8872" rx="14.5262" transform="rotate(35.6656 125.609 0)" fill="white"/>
</svg>
