<svg width="414" height="131" viewBox="0 0 414 131" fill="none" xmlns="http://www.w3.org/2000/svg">
<path d="M3.336 68.6016V1.40156H32.52C36.744 1.40156 40.424 2.13756 43.56 3.60956C46.696 5.08156 49.128 7.16156 50.856 9.84956C52.584 12.5376 53.448 15.7056 53.448 19.3536V20.5056C53.448 24.5376 52.488 27.8016 50.568 30.2976C48.648 32.7936 46.28 34.6176 43.464 35.7696V37.4976C46.024 37.6256 48.008 38.5216 49.416 40.1856C50.824 41.7856 51.528 43.9296 51.528 46.6176V68.6016H38.856V48.4416C38.856 46.9056 38.44 45.6576 37.608 44.6976C36.84 43.7376 35.528 43.2576 33.672 43.2576H16.008V68.6016H3.336ZM16.008 31.7376H31.176C34.184 31.7376 36.52 30.9376 38.184 29.3376C39.912 27.6736 40.776 25.4976 40.776 22.8096V21.8496C40.776 19.1616 39.944 17.0176 38.28 15.4176C36.616 13.7536 34.248 12.9216 31.176 12.9216H16.008V31.7376ZM87.9923 69.9456C83.2563 69.9456 79.0002 68.9856 75.2242 67.0656C71.4482 65.1456 68.4722 62.3616 66.2962 58.7136C64.1202 55.0656 63.0322 50.6816 63.0322 45.5616V44.0256C63.0322 38.9056 64.1202 34.5216 66.2962 30.8736C68.4722 27.2256 71.4482 24.4416 75.2242 22.5216C79.0002 20.6016 83.2563 19.6416 87.9923 19.6416C92.7283 19.6416 96.9843 20.6016 100.76 22.5216C104.536 24.4416 107.512 27.2256 109.688 30.8736C111.864 34.5216 112.952 38.9056 112.952 44.0256V45.5616C112.952 50.6816 111.864 55.0656 109.688 58.7136C107.512 62.3616 104.536 65.1456 100.76 67.0656C96.9843 68.9856 92.7283 69.9456 87.9923 69.9456ZM87.9923 59.1936C91.7043 59.1936 94.7763 58.0096 97.2083 55.6416C99.6403 53.2096 100.856 49.7536 100.856 45.2736V44.3136C100.856 39.8336 99.6403 36.4096 97.2083 34.0416C94.8403 31.6096 91.7683 30.3936 87.9923 30.3936C84.2803 30.3936 81.2083 31.6096 78.7762 34.0416C76.3442 36.4096 75.1282 39.8336 75.1282 44.3136V45.2736C75.1282 49.7536 76.3442 53.2096 78.7762 55.6416C81.2083 58.0096 84.2803 59.1936 87.9923 59.1936ZM153.686 69.9456C149.398 69.9456 146.102 69.2096 143.797 67.7376C141.493 66.2656 139.797 64.6336 138.709 62.8416H136.981V68.6016H125.077V1.40156H137.173V26.4576H138.901C139.605 25.3056 140.533 24.2176 141.685 23.1936C142.902 22.1696 144.47 21.3376 146.39 20.6976C148.373 19.9936 150.806 19.6416 153.686 19.6416C157.526 19.6416 161.078 20.6016 164.342 22.5216C167.606 24.3776 170.23 27.1296 172.214 30.7776C174.198 34.4256 175.189 38.8416 175.189 44.0256V45.5616C175.189 50.7456 174.198 55.1616 172.214 58.8096C170.23 62.4576 167.606 65.2416 164.342 67.1616C161.078 69.0176 157.526 69.9456 153.686 69.9456ZM150.037 59.3856C153.749 59.3856 156.853 58.2016 159.349 55.8336C161.845 53.4016 163.094 49.8816 163.094 45.2736V44.3136C163.094 39.7056 161.845 36.2176 159.349 33.8496C156.918 31.4176 153.814 30.2016 150.037 30.2016C146.325 30.2016 143.221 31.4176 140.725 33.8496C138.229 36.2176 136.981 39.7056 136.981 44.3136V45.2736C136.981 49.8816 138.229 53.4016 140.725 55.8336C143.221 58.2016 146.325 59.3856 150.037 59.3856ZM209.912 69.9456C205.176 69.9456 200.92 68.9856 197.144 67.0656C193.368 65.1456 190.392 62.3616 188.216 58.7136C186.04 55.0656 184.952 50.6816 184.952 45.5616V44.0256C184.952 38.9056 186.04 34.5216 188.216 30.8736C190.392 27.2256 193.368 24.4416 197.144 22.5216C200.92 20.6016 205.176 19.6416 209.912 19.6416C214.648 19.6416 218.904 20.6016 222.68 22.5216C226.456 24.4416 229.432 27.2256 231.608 30.8736C233.784 34.5216 234.872 38.9056 234.872 44.0256V45.5616C234.872 50.6816 233.784 55.0656 231.608 58.7136C229.432 62.3616 226.456 65.1456 222.68 67.0656C218.904 68.9856 214.648 69.9456 209.912 69.9456ZM209.912 59.1936C213.624 59.1936 216.696 58.0096 219.128 55.6416C221.56 53.2096 222.776 49.7536 222.776 45.2736V44.3136C222.776 39.8336 221.56 36.4096 219.128 34.0416C216.76 31.6096 213.688 30.3936 209.912 30.3936C206.2 30.3936 203.128 31.6096 200.696 34.0416C198.264 36.4096 197.048 39.8336 197.048 44.3136V45.2736C197.048 49.7536 198.264 53.2096 200.696 55.6416C203.128 58.0096 206.2 59.1936 209.912 59.1936ZM263.644 68.6016C260.508 68.6016 257.948 67.6416 255.964 65.7216C254.044 63.7376 253.084 61.1136 253.084 57.8496V30.9696H241.18V20.9856H253.084V6.20156H265.18V20.9856H278.236V30.9696H265.18V55.7376C265.18 57.6576 266.076 58.6176 267.868 58.6176H277.084V68.6016H263.644ZM290.145 68.6016V20.9856H302.241V68.6016H290.145ZM296.193 15.4176C294.017 15.4176 292.161 14.7136 290.625 13.3056C289.153 11.8976 288.417 10.0416 288.417 7.73756C288.417 5.43356 289.153 3.57756 290.625 2.16956C292.161 0.761559 294.017 0.0575581 296.193 0.0575581C298.433 0.0575581 300.289 0.761559 301.761 2.16956C303.233 3.57756 303.969 5.43356 303.969 7.73756C303.969 10.0416 303.233 11.8976 301.761 13.3056C300.289 14.7136 298.433 15.4176 296.193 15.4176ZM338.973 69.9456C334.365 69.9456 330.173 68.9856 326.397 67.0656C322.685 65.1456 319.741 62.3616 317.565 58.7136C315.389 55.0656 314.301 50.6496 314.301 45.4656V44.1216C314.301 38.9376 315.389 34.5216 317.565 30.8736C319.741 27.2256 322.685 24.4416 326.397 22.5216C330.173 20.6016 334.365 19.6416 338.973 19.6416C343.517 19.6416 347.421 20.4416 350.685 22.0416C353.949 23.6416 356.573 25.8496 358.557 28.6656C360.605 31.4176 361.949 34.5536 362.589 38.0736L350.877 40.5696C350.621 38.6496 350.045 36.9216 349.149 35.3856C348.253 33.8496 346.973 32.6336 345.309 31.7376C343.709 30.8416 341.693 30.3936 339.261 30.3936C336.829 30.3936 334.621 30.9376 332.637 32.0256C330.717 33.0496 329.181 34.6176 328.029 36.7296C326.941 38.7776 326.397 41.3056 326.397 44.3136V45.2736C326.397 48.2816 326.941 50.8416 328.029 52.9536C329.181 55.0016 330.717 56.5696 332.637 57.6576C334.621 58.6816 336.829 59.1936 339.261 59.1936C342.909 59.1936 345.661 58.2656 347.517 56.4096C349.437 54.4896 350.653 51.9936 351.165 48.9216L362.877 51.7056C362.045 55.0976 360.605 58.2016 358.557 61.0176C356.573 63.7696 353.949 65.9456 350.685 67.5456C347.421 69.1456 343.517 69.9456 338.973 69.9456ZM393.591 69.9456C387.383 69.9456 382.295 68.6016 378.327 65.9136C374.359 63.2256 371.959 59.3856 371.127 54.3936L382.263 51.5136C382.711 53.7536 383.447 55.5136 384.471 56.7936C385.559 58.0736 386.871 59.0016 388.407 59.5776C390.007 60.0896 391.735 60.3456 393.591 60.3456C396.407 60.3456 398.487 59.8656 399.831 58.9056C401.175 57.8816 401.847 56.6336 401.847 55.1616C401.847 53.6896 401.207 52.5696 399.927 51.8016C398.647 50.9696 396.599 50.2976 393.783 49.7856L391.095 49.3056C387.767 48.6656 384.727 47.8016 381.975 46.7136C379.223 45.5616 377.015 43.9936 375.351 42.0096C373.687 40.0256 372.855 37.4656 372.855 34.3296C372.855 29.5936 374.583 25.9776 378.039 23.4816C381.495 20.9216 386.039 19.6416 391.671 19.6416C396.983 19.6416 401.399 20.8256 404.919 23.1936C408.439 25.5616 410.743 28.6656 411.831 32.5056L400.599 35.9616C400.087 33.5296 399.031 31.8016 397.431 30.7776C395.895 29.7536 393.975 29.2416 391.671 29.2416C389.367 29.2416 387.607 29.6576 386.391 30.4896C385.175 31.2576 384.567 32.3456 384.567 33.7536C384.567 35.2896 385.207 36.4416 386.487 37.2096C387.767 37.9136 389.495 38.4576 391.671 38.8416L394.359 39.3216C397.943 39.9616 401.175 40.8256 404.055 41.9136C406.999 42.9376 409.303 44.4416 410.967 46.4256C412.695 48.3456 413.559 50.9696 413.559 54.2976C413.559 59.2896 411.735 63.1616 408.087 65.9136C404.503 68.6016 399.671 69.9456 393.591 69.9456ZM18.312 130.498C12.9787 130.498 8.73333 128.962 5.576 125.89C2.41867 122.775 0.84 118.252 0.84 112.322V102.082C0.84 96.1509 2.41867 91.6496 5.576 88.5776C8.73333 85.4629 12.9787 83.9056 18.312 83.9056C23.6027 83.9056 27.656 85.3776 30.472 88.3216C33.3307 91.2656 34.76 95.2976 34.76 100.418V100.738H29.448V100.226C29.448 96.8549 28.5307 94.1029 26.696 91.9696C24.904 89.7936 22.1093 88.7056 18.312 88.7056C14.5147 88.7056 11.5493 89.8789 9.416 92.2256C7.28267 94.5296 6.216 97.7722 6.216 101.954V112.45C6.216 116.631 7.28267 119.895 9.416 122.242C11.5493 124.546 14.5147 125.698 18.312 125.698C22.1093 125.698 24.904 124.631 26.696 122.498C28.5307 120.322 29.448 117.548 29.448 114.178V113.154H34.76V113.986C34.76 119.106 33.3307 123.138 30.472 126.082C27.656 129.026 23.6027 130.498 18.312 130.498ZM70.6385 130.498C67.4812 130.498 64.6865 129.836 62.2545 128.514C59.8652 127.191 57.9878 125.335 56.6225 122.946C55.2998 120.514 54.6385 117.655 54.6385 114.37V113.538C54.6385 110.295 55.2998 107.458 56.6225 105.026C57.9878 102.594 59.8652 100.716 62.2545 99.3936C64.6865 98.0709 67.4812 97.4096 70.6385 97.4096C73.7958 97.4096 76.5692 98.0709 78.9585 99.3936C81.3905 100.716 83.2678 102.594 84.5905 105.026C85.9558 107.458 86.6385 110.295 86.6385 113.538V114.37C86.6385 117.655 85.9558 120.514 84.5905 122.946C83.2678 125.335 81.3905 127.191 78.9585 128.514C76.5692 129.836 73.7958 130.498 70.6385 130.498ZM70.6385 125.954C73.9665 125.954 76.6118 124.908 78.5745 122.818C80.5798 120.684 81.5825 117.826 81.5825 114.242V113.666C81.5825 110.082 80.5798 107.244 78.5745 105.154C76.6118 103.02 73.9665 101.954 70.6385 101.954C67.3532 101.954 64.7078 103.02 62.7025 105.154C60.6972 107.244 59.6945 110.082 59.6945 113.666V114.242C59.6945 117.826 60.6972 120.684 62.7025 122.818C64.7078 124.908 67.3532 125.954 70.6385 125.954ZM108.537 129.602V84.8016H113.593V129.602H108.537ZM137.024 129.602V84.8016H142.08V129.602H137.024ZM179.848 130.498C176.691 130.498 173.917 129.836 171.528 128.514C169.139 127.148 167.283 125.25 165.96 122.818C164.637 120.386 163.976 117.57 163.976 114.37V113.602C163.976 110.359 164.637 107.522 165.96 105.09C167.283 102.658 169.117 100.78 171.464 99.4576C173.811 98.0922 176.499 97.4096 179.528 97.4096C182.472 97.4096 185.075 98.0496 187.336 99.3296C189.597 100.567 191.368 102.359 192.648 104.706C193.928 107.052 194.568 109.804 194.568 112.962V115.266H169.032C169.16 118.636 170.248 121.282 172.296 123.202C174.344 125.079 176.904 126.018 179.976 126.018C182.664 126.018 184.733 125.399 186.184 124.162C187.635 122.924 188.744 121.452 189.512 119.746L193.864 121.858C193.224 123.18 192.328 124.503 191.176 125.826C190.067 127.148 188.595 128.258 186.76 129.154C184.968 130.05 182.664 130.498 179.848 130.498ZM169.096 111.106H189.448C189.277 108.204 188.275 105.943 186.44 104.322C184.648 102.7 182.344 101.89 179.528 101.89C176.669 101.89 174.323 102.7 172.488 104.322C170.653 105.943 169.523 108.204 169.096 111.106ZM230.587 130.498C227.558 130.498 224.827 129.858 222.395 128.578C220.006 127.255 218.107 125.378 216.699 122.946C215.334 120.514 214.651 117.634 214.651 114.306V113.602C214.651 110.231 215.334 107.351 216.699 104.962C218.107 102.53 220.006 100.674 222.395 99.3936C224.827 98.0709 227.558 97.4096 230.587 97.4096C233.574 97.4096 236.112 97.9642 238.203 99.0736C240.336 100.183 242 101.655 243.195 103.49C244.432 105.324 245.222 107.287 245.563 109.378L240.635 110.402C240.422 108.866 239.91 107.458 239.099 106.178C238.331 104.898 237.243 103.874 235.835 103.106C234.427 102.338 232.699 101.954 230.651 101.954C228.56 101.954 226.683 102.423 225.019 103.362C223.398 104.3 222.096 105.644 221.115 107.394C220.176 109.143 219.707 111.234 219.707 113.666V114.242C219.707 116.674 220.176 118.764 221.115 120.514C222.096 122.263 223.398 123.607 225.019 124.546C226.683 125.484 228.56 125.954 230.651 125.954C233.766 125.954 236.134 125.143 237.755 123.522C239.419 121.9 240.443 119.895 240.827 117.506L245.819 118.594C245.35 120.642 244.496 122.583 243.259 124.418C242.022 126.252 240.336 127.724 238.203 128.834C236.112 129.943 233.574 130.498 230.587 130.498ZM277.444 129.602C275.652 129.602 274.266 129.111 273.284 128.13C272.346 127.148 271.876 125.804 271.876 124.098V102.722H262.468V98.3056H271.876V87.1696H276.932V98.3056H287.172V102.722H276.932V123.33C276.932 124.61 277.551 125.25 278.788 125.25H285.764V129.602H277.444ZM308.162 129.602V98.3056H313.218V129.602H308.162ZM310.722 93.4416C309.613 93.4416 308.674 93.0789 307.906 92.3536C307.181 91.6282 306.818 90.7109 306.818 89.6016C306.818 88.4496 307.181 87.5109 307.906 86.7856C308.674 86.0602 309.613 85.6976 310.722 85.6976C311.831 85.6976 312.749 86.0602 313.474 86.7856C314.199 87.5109 314.562 88.4496 314.562 89.6016C314.562 90.7109 314.199 91.6282 313.474 92.3536C312.749 93.0789 311.831 93.4416 310.722 93.4416ZM344.585 129.602L333.385 98.3056H338.761L348.169 125.826H349.065L358.473 98.3056H363.849L352.649 129.602H344.585ZM396.973 130.498C393.816 130.498 391.042 129.836 388.653 128.514C386.264 127.148 384.408 125.25 383.085 122.818C381.762 120.386 381.101 117.57 381.101 114.37V113.602C381.101 110.359 381.762 107.522 383.085 105.09C384.408 102.658 386.242 100.78 388.589 99.4576C390.936 98.0922 393.624 97.4096 396.653 97.4096C399.597 97.4096 402.2 98.0496 404.461 99.3296C406.722 100.567 408.493 102.359 409.773 104.706C411.053 107.052 411.693 109.804 411.693 112.962V115.266H386.157C386.285 118.636 387.373 121.282 389.421 123.202C391.469 125.079 394.029 126.018 397.101 126.018C399.789 126.018 401.858 125.399 403.309 124.162C404.76 122.924 405.869 121.452 406.637 119.746L410.989 121.858C410.349 123.18 409.453 124.503 408.301 125.826C407.192 127.148 405.72 128.258 403.885 129.154C402.093 130.05 399.789 130.498 396.973 130.498ZM386.221 111.106H406.573C406.402 108.204 405.4 105.943 403.565 104.322C401.773 102.7 399.469 101.89 396.653 101.89C393.794 101.89 391.448 102.7 389.613 104.322C387.778 105.943 386.648 108.204 386.221 111.106Z" fill="white"/>
</svg>
