<svg width="656" height="168" viewBox="0 0 656 168" fill="none" xmlns="http://www.w3.org/2000/svg">
<path fill-rule="evenodd" clip-rule="evenodd" d="M65.1389 8.18327C56.102 2.77468 44.3917 5.71596 38.9831 14.7528L2.70964 75.3596C0.229663 79.5032 -0.494791 84.209 0.318956 88.6115C0.476001 91.7132 1.39454 94.8203 3.14159 97.6494L40.4515 158.067C45.9851 167.028 57.7352 169.807 66.6961 164.273C73.3145 160.186 76.5602 152.708 75.5753 145.467C49.6096 138.131 30.582 114.261 30.582 85.9471C30.582 58.1043 48.9819 34.559 74.2854 26.8074C75.1452 19.5716 71.7959 12.1676 65.1389 8.18327Z" fill="white"/>
<path fill-rule="evenodd" clip-rule="evenodd" d="M184.372 84.4666C184.693 80.6979 183.898 76.7965 181.852 73.2788L147.879 14.873C142.583 5.76939 130.911 2.6822 121.807 7.9776C114.801 12.0526 111.359 19.9042 112.557 27.4554C136.828 35.8076 154.267 58.8407 154.267 85.9471C154.267 114.113 135.438 137.881 109.681 145.35C108.387 153.007 111.884 160.999 119.018 165.08C128.159 170.311 139.809 167.141 145.04 158L181.853 93.6679C183.517 90.759 184.331 87.596 184.372 84.4666Z" fill="white"/>
<rect x="125.609" width="29.0523" height="55.8872" rx="14.5262" transform="rotate(35.6656 125.609 0)" fill="white"/>
<path d="M240.776 88.3008V21.1008H269.96C274.184 21.1008 277.864 21.8368 281 23.3088C284.136 24.7808 286.568 26.8608 288.296 29.5488C290.024 32.2368 290.888 35.4048 290.888 39.0528V40.2048C290.888 44.2368 289.928 47.5008 288.008 49.9968C286.088 52.4928 283.72 54.3168 280.904 55.4688V57.1968C283.464 57.3248 285.448 58.2208 286.856 59.8848C288.264 61.4848 288.968 63.6288 288.968 66.3168V88.3008H276.296V68.1408C276.296 66.6048 275.88 65.3568 275.048 64.3968C274.28 63.4368 272.968 62.9568 271.112 62.9568H253.448V88.3008H240.776ZM253.448 51.4368H268.616C271.624 51.4368 273.96 50.6368 275.624 49.0368C277.352 47.3728 278.216 45.1968 278.216 42.5088V41.5488C278.216 38.8608 277.384 36.7168 275.72 35.1168C274.056 33.4528 271.688 32.6208 268.616 32.6208H253.448V51.4368ZM325.433 89.6448C320.697 89.6448 316.441 88.6848 312.665 86.7648C308.889 84.8448 305.913 82.0608 303.737 78.4128C301.561 74.7648 300.473 70.3808 300.473 65.2608V63.7248C300.473 58.6048 301.561 54.2208 303.737 50.5728C305.913 46.9248 308.889 44.1408 312.665 42.2208C316.441 40.3008 320.697 39.3408 325.433 39.3408C330.169 39.3408 334.425 40.3008 338.201 42.2208C341.977 44.1408 344.953 46.9248 347.129 50.5728C349.305 54.2208 350.393 58.6048 350.393 63.7248V65.2608C350.393 70.3808 349.305 74.7648 347.129 78.4128C344.953 82.0608 341.977 84.8448 338.201 86.7648C334.425 88.6848 330.169 89.6448 325.433 89.6448ZM325.433 78.8928C329.145 78.8928 332.217 77.7088 334.649 75.3408C337.081 72.9088 338.297 69.4528 338.297 64.9728V64.0128C338.297 59.5328 337.081 56.1088 334.649 53.7408C332.281 51.3088 329.209 50.0928 325.433 50.0928C321.721 50.0928 318.649 51.3088 316.217 53.7408C313.785 56.1088 312.569 59.5328 312.569 64.0128V64.9728C312.569 69.4528 313.785 72.9088 316.217 75.3408C318.649 77.7088 321.721 78.8928 325.433 78.8928ZM391.126 89.6448C386.838 89.6448 383.542 88.9088 381.238 87.4368C378.934 85.9648 377.238 84.3328 376.15 82.5408H374.422V88.3008H362.518V21.1008H374.614V46.1568H376.342C377.046 45.0048 377.974 43.9168 379.126 42.8928C380.342 41.8688 381.91 41.0368 383.83 40.3968C385.814 39.6928 388.246 39.3408 391.126 39.3408C394.966 39.3408 398.518 40.3008 401.782 42.2208C405.046 44.0768 407.67 46.8288 409.654 50.4768C411.638 54.1248 412.63 58.5408 412.63 63.7248V65.2608C412.63 70.4448 411.638 74.8608 409.654 78.5088C407.67 82.1568 405.046 84.9408 401.782 86.8608C398.518 88.7168 394.966 89.6448 391.126 89.6448ZM387.478 79.0848C391.19 79.0848 394.294 77.9008 396.79 75.5328C399.286 73.1008 400.534 69.5808 400.534 64.9728V64.0128C400.534 59.4048 399.286 55.9168 396.79 53.5488C394.358 51.1168 391.254 49.9008 387.478 49.9008C383.766 49.9008 380.662 51.1168 378.166 53.5488C375.67 55.9168 374.422 59.4048 374.422 64.0128V64.9728C374.422 69.5808 375.67 73.1008 378.166 75.5328C380.662 77.9008 383.766 79.0848 387.478 79.0848ZM447.353 89.6448C442.617 89.6448 438.361 88.6848 434.585 86.7648C430.809 84.8448 427.833 82.0608 425.657 78.4128C423.481 74.7648 422.393 70.3808 422.393 65.2608V63.7248C422.393 58.6048 423.481 54.2208 425.657 50.5728C427.833 46.9248 430.809 44.1408 434.585 42.2208C438.361 40.3008 442.617 39.3408 447.353 39.3408C452.089 39.3408 456.345 40.3008 460.121 42.2208C463.897 44.1408 466.873 46.9248 469.049 50.5728C471.225 54.2208 472.313 58.6048 472.313 63.7248V65.2608C472.313 70.3808 471.225 74.7648 469.049 78.4128C466.873 82.0608 463.897 84.8448 460.121 86.7648C456.345 88.6848 452.089 89.6448 447.353 89.6448ZM447.353 78.8928C451.065 78.8928 454.137 77.7088 456.569 75.3408C459.001 72.9088 460.217 69.4528 460.217 64.9728V64.0128C460.217 59.5328 459.001 56.1088 456.569 53.7408C454.201 51.3088 451.129 50.0928 447.353 50.0928C443.641 50.0928 440.569 51.3088 438.137 53.7408C435.705 56.1088 434.489 59.5328 434.489 64.0128V64.9728C434.489 69.4528 435.705 72.9088 438.137 75.3408C440.569 77.7088 443.641 78.8928 447.353 78.8928ZM501.084 88.3008C497.948 88.3008 495.388 87.3408 493.404 85.4208C491.484 83.4368 490.524 80.8128 490.524 77.5488V50.6688H478.62V40.6848H490.524V25.9008H502.62V40.6848H515.676V50.6688H502.62V75.4368C502.62 77.3568 503.516 78.3168 505.308 78.3168H514.524V88.3008H501.084ZM527.585 88.3008V40.6848H539.681V88.3008H527.585ZM533.633 35.1168C531.457 35.1168 529.601 34.4128 528.065 33.0048C526.593 31.5968 525.857 29.7408 525.857 27.4368C525.857 25.1328 526.593 23.2768 528.065 21.8688C529.601 20.4608 531.457 19.7568 533.633 19.7568C535.873 19.7568 537.729 20.4608 539.201 21.8688C540.673 23.2768 541.409 25.1328 541.409 27.4368C541.409 29.7408 540.673 31.5968 539.201 33.0048C537.729 34.4128 535.873 35.1168 533.633 35.1168ZM576.413 89.6448C571.805 89.6448 567.613 88.6848 563.837 86.7648C560.125 84.8448 557.181 82.0608 555.005 78.4128C552.829 74.7648 551.741 70.3488 551.741 65.1648V63.8208C551.741 58.6368 552.829 54.2208 555.005 50.5728C557.181 46.9248 560.125 44.1408 563.837 42.2208C567.613 40.3008 571.805 39.3408 576.413 39.3408C580.957 39.3408 584.861 40.1408 588.125 41.7408C591.389 43.3408 594.013 45.5488 595.997 48.3648C598.045 51.1168 599.389 54.2528 600.029 57.7728L588.317 60.2688C588.061 58.3488 587.485 56.6208 586.589 55.0848C585.693 53.5488 584.413 52.3328 582.749 51.4368C581.149 50.5408 579.133 50.0928 576.701 50.0928C574.269 50.0928 572.061 50.6368 570.077 51.7248C568.157 52.7488 566.621 54.3168 565.469 56.4288C564.381 58.4768 563.837 61.0048 563.837 64.0128V64.9728C563.837 67.9808 564.381 70.5408 565.469 72.6528C566.621 74.7008 568.157 76.2688 570.077 77.3568C572.061 78.3808 574.269 78.8928 576.701 78.8928C580.349 78.8928 583.101 77.9648 584.957 76.1088C586.877 74.1888 588.093 71.6928 588.605 68.6208L600.317 71.4048C599.485 74.7968 598.045 77.9008 595.997 80.7168C594.013 83.4688 591.389 85.6448 588.125 87.2448C584.861 88.8448 580.957 89.6448 576.413 89.6448ZM631.031 89.6448C624.823 89.6448 619.735 88.3008 615.767 85.6128C611.799 82.9248 609.399 79.0848 608.567 74.0928L619.703 71.2128C620.151 73.4528 620.887 75.2128 621.911 76.4928C622.999 77.7728 624.311 78.7008 625.847 79.2768C627.447 79.7888 629.175 80.0448 631.031 80.0448C633.847 80.0448 635.927 79.5648 637.271 78.6048C638.615 77.5808 639.287 76.3328 639.287 74.8608C639.287 73.3888 638.647 72.2688 637.367 71.5008C636.087 70.6688 634.039 69.9968 631.223 69.4848L628.535 69.0048C625.207 68.3648 622.167 67.5008 619.415 66.4128C616.663 65.2608 614.455 63.6928 612.791 61.7088C611.127 59.7248 610.295 57.1648 610.295 54.0288C610.295 49.2928 612.023 45.6768 615.479 43.1808C618.935 40.6208 623.479 39.3408 629.111 39.3408C634.423 39.3408 638.839 40.5248 642.359 42.8928C645.879 45.2608 648.183 48.3648 649.271 52.2048L638.039 55.6608C637.527 53.2288 636.471 51.5008 634.871 50.4768C633.335 49.4528 631.415 48.9408 629.111 48.9408C626.807 48.9408 625.047 49.3568 623.831 50.1888C622.615 50.9568 622.007 52.0448 622.007 53.4528C622.007 54.9888 622.647 56.1408 623.927 56.9088C625.207 57.6128 626.935 58.1568 629.111 58.5408L631.799 59.0208C635.383 59.6608 638.615 60.5248 641.495 61.6128C644.439 62.6368 646.743 64.1408 648.407 66.1248C650.135 68.0448 650.999 70.6688 650.999 73.9968C650.999 78.9888 649.175 82.8608 645.527 85.6128C641.943 88.3008 637.111 89.6448 631.031 89.6448ZM255.752 150.197C250.419 150.197 246.174 148.661 243.016 145.589C239.859 142.474 238.28 137.951 238.28 132.021V121.781C238.28 115.85 239.859 111.349 243.016 108.277C246.174 105.162 250.419 103.605 255.752 103.605C261.043 103.605 265.096 105.077 267.912 108.021C270.771 110.965 272.2 114.997 272.2 120.117V120.437H266.888V119.925C266.888 116.554 265.971 113.802 264.136 111.669C262.344 109.493 259.55 108.405 255.752 108.405C251.955 108.405 248.99 109.578 246.856 111.925C244.723 114.229 243.656 117.471 243.656 121.653V132.149C243.656 136.33 244.723 139.594 246.856 141.941C248.99 144.245 251.955 145.397 255.752 145.397C259.55 145.397 262.344 144.33 264.136 142.197C265.971 140.021 266.888 137.247 266.888 133.877V132.853H272.2V133.685C272.2 138.805 270.771 142.837 267.912 145.781C265.096 148.725 261.043 150.197 255.752 150.197ZM308.079 150.197C304.922 150.197 302.127 149.535 299.695 148.213C297.306 146.89 295.428 145.034 294.063 142.645C292.74 140.213 292.079 137.354 292.079 134.069V133.237C292.079 129.994 292.74 127.157 294.063 124.725C295.428 122.293 297.306 120.415 299.695 119.093C302.127 117.77 304.922 117.109 308.079 117.109C311.236 117.109 314.01 117.77 316.399 119.093C318.831 120.415 320.708 122.293 322.031 124.725C323.396 127.157 324.079 129.994 324.079 133.237V134.069C324.079 137.354 323.396 140.213 322.031 142.645C320.708 145.034 318.831 146.89 316.399 148.213C314.01 149.535 311.236 150.197 308.079 150.197ZM308.079 145.653C311.407 145.653 314.052 144.607 316.015 142.517C318.02 140.383 319.023 137.525 319.023 133.941V133.365C319.023 129.781 318.02 126.943 316.015 124.853C314.052 122.719 311.407 121.653 308.079 121.653C304.794 121.653 302.148 122.719 300.143 124.853C298.138 126.943 297.135 129.781 297.135 133.365V133.941C297.135 137.525 298.138 140.383 300.143 142.517C302.148 144.607 304.794 145.653 308.079 145.653ZM345.977 149.301V104.501H351.033V149.301H345.977ZM374.465 149.301V104.501H379.521V149.301H374.465ZM417.288 150.197C414.131 150.197 411.358 149.535 408.968 148.213C406.579 146.847 404.723 144.949 403.4 142.517C402.078 140.085 401.416 137.269 401.416 134.069V133.301C401.416 130.058 402.078 127.221 403.4 124.789C404.723 122.357 406.558 120.479 408.904 119.157C411.251 117.791 413.939 117.109 416.968 117.109C419.912 117.109 422.515 117.749 424.776 119.029C427.038 120.266 428.808 122.058 430.088 124.405C431.368 126.751 432.008 129.503 432.008 132.661V134.965H406.472C406.6 138.335 407.688 140.981 409.736 142.901C411.784 144.778 414.344 145.717 417.416 145.717C420.104 145.717 422.174 145.098 423.624 143.861C425.075 142.623 426.184 141.151 426.952 139.445L431.304 141.557C430.664 142.879 429.768 144.202 428.616 145.525C427.507 146.847 426.035 147.957 424.2 148.853C422.408 149.749 420.104 150.197 417.288 150.197ZM406.536 130.805H426.888C426.718 127.903 425.715 125.642 423.88 124.021C422.088 122.399 419.784 121.589 416.968 121.589C414.11 121.589 411.763 122.399 409.928 124.021C408.094 125.642 406.963 127.903 406.536 130.805ZM468.027 150.197C464.998 150.197 462.267 149.557 459.835 148.277C457.446 146.954 455.547 145.077 454.139 142.645C452.774 140.213 452.091 137.333 452.091 134.005V133.301C452.091 129.93 452.774 127.05 454.139 124.661C455.547 122.229 457.446 120.373 459.835 119.093C462.267 117.77 464.998 117.109 468.027 117.109C471.014 117.109 473.553 117.663 475.643 118.773C477.777 119.882 479.441 121.354 480.635 123.189C481.873 125.023 482.662 126.986 483.003 129.077L478.075 130.101C477.862 128.565 477.35 127.157 476.539 125.877C475.771 124.597 474.683 123.573 473.275 122.805C471.867 122.037 470.139 121.653 468.091 121.653C466.001 121.653 464.123 122.122 462.459 123.061C460.838 123.999 459.537 125.343 458.555 127.093C457.617 128.842 457.147 130.933 457.147 133.365V133.941C457.147 136.373 457.617 138.463 458.555 140.213C459.537 141.962 460.838 143.306 462.459 144.245C464.123 145.183 466.001 145.653 468.091 145.653C471.206 145.653 473.574 144.842 475.195 143.221C476.859 141.599 477.883 139.594 478.267 137.205L483.259 138.293C482.79 140.341 481.937 142.282 480.699 144.117C479.462 145.951 477.777 147.423 475.643 148.533C473.553 149.642 471.014 150.197 468.027 150.197ZM514.885 149.301C513.093 149.301 511.706 148.81 510.725 147.829C509.786 146.847 509.317 145.503 509.317 143.797V122.421H499.909V118.005H509.317V106.869H514.373V118.005H524.613V122.421H514.373V143.029C514.373 144.309 514.992 144.949 516.229 144.949H523.205V149.301H514.885ZM545.602 149.301V118.005H550.658V149.301H545.602ZM548.162 113.141C547.053 113.141 546.114 112.778 545.346 112.053C544.621 111.327 544.258 110.41 544.258 109.301C544.258 108.149 544.621 107.21 545.346 106.485C546.114 105.759 547.053 105.397 548.162 105.397C549.272 105.397 550.189 105.759 550.914 106.485C551.64 107.21 552.002 108.149 552.002 109.301C552.002 110.41 551.64 111.327 550.914 112.053C550.189 112.778 549.272 113.141 548.162 113.141ZM582.026 149.301L570.826 118.005H576.202L585.61 145.525H586.506L595.914 118.005H601.29L590.09 149.301H582.026ZM634.413 150.197C631.256 150.197 628.483 149.535 626.093 148.213C623.704 146.847 621.848 144.949 620.525 142.517C619.203 140.085 618.541 137.269 618.541 134.069V133.301C618.541 130.058 619.203 127.221 620.525 124.789C621.848 122.357 623.683 120.479 626.029 119.157C628.376 117.791 631.064 117.109 634.093 117.109C637.037 117.109 639.64 117.749 641.901 119.029C644.163 120.266 645.933 122.058 647.213 124.405C648.493 126.751 649.133 129.503 649.133 132.661V134.965H623.597C623.725 138.335 624.813 140.981 626.861 142.901C628.909 144.778 631.469 145.717 634.541 145.717C637.229 145.717 639.299 145.098 640.749 143.861C642.2 142.623 643.309 141.151 644.077 139.445L648.429 141.557C647.789 142.879 646.893 144.202 645.741 145.525C644.632 146.847 643.16 147.957 641.325 148.853C639.533 149.749 637.229 150.197 634.413 150.197ZM623.661 130.805H644.013C643.843 127.903 642.84 125.642 641.005 124.021C639.213 122.399 636.909 121.589 634.093 121.589C631.235 121.589 628.888 122.399 627.053 124.021C625.219 125.642 624.088 127.903 623.661 130.805Z" fill="white"/>
</svg>
